PathFileType	4	(X/Y/Z)	C:\Users\u0145647\OneDrive - KU Leuven\KU Leuven\c3d2osim\CP4\T0\Data\Processed\ViconC3D_CP4_2\CP4_T0_16_gapFilled.trc
DataRate	CameraRate	NumFrames	NumMarkers	Units	OrigDataRate	OrigDataStartFrame	OrigNumFrames
100.000000	100.000000	8	47	mm	100.000000	1	433
Frame#	Time	C7			T10			CLAV			STRN			LSHO			RSHO			RBAK			LASI			RASI			LPSI			RPSI			LLAT			RLAT			LF1			LF2			LF3			LTHI			LKNE			LMEK			RF1			RF2			RF3			RTHI			RKNE			RMEK			LT1			LT2			LT3			LTIB			LANK			LMM			RT1			RT2			RT3			RTIB			RANK			RMM			LHEE			LSTL			LLCA			LTOE			LCM5			RHEE			RSTL			RLCA			RTOE			RCM5
		X1	Y1	Z1	X2	Y2	Z2	X3	Y3	Z3	X4	Y4	Z4	X5	Y5	Z5	X6	Y6	Z6	X7	Y7	Z7	X8	Y8	Z8	X9	Y9	Z9	X10	Y10	Z10	X11	Y11	Z11	X12	Y12	Z12	X13	Y13	Z13	X14	Y14	Z14	X15	Y15	Z15	X16	Y16	Z16	X17	Y17	Z17	X18	Y18	Z18	X19	Y19	Z19	X20	Y20	Z20	X21	Y21	Z21	X22	Y22	Z22	X23	Y23	Z23	X24	Y24	Z24	X25	Y25	Z25	X26	Y26	Z26	X27	Y27	Z27	X28	Y28	Z28	X29	Y29	Z29	X30	Y30	Z30	X31	Y31	Z31	X32	Y32	Z32	X33	Y33	Z33	X34	Y34	Z34	X35	Y35	Z35	X36	Y36	Z36	X37	Y37	Z37	X38	Y38	Z38	X39	Y39	Z39	X40	Y40	Z40	X41	Y41	Z41	X42	Y42	Z42	X43	Y43	Z43	X44	Y44	Z44	X45	Y45	Z45	X46	Y46	Z46	X47	Y47	Z47

1	0	2868.7	1429	-253.8	2893.4	1176	-202.31	NaN	NaN	NaN	NaN	NaN	NaN	2810.1	1424.3	-38.671	2827.5	1361.2	-437.37	2906.1	1328.9	-359.93	2746.3	898.44	-150.44	2782.7	926.73	-345.71	2914.3	966.86	-168.69	2929.4	984.64	-239.91	2781.3	974.84	-81.384	2834.8	1007.9	-369.45	2736.6	648.32	-89.704	NaN	NaN	NaN	NaN	NaN	NaN	NaN	NaN	NaN	2722.2	441.91	-111.41	NaN	NaN	NaN	NaN	NaN	NaN	2844	686.81	-383.64	2903.9	692.37	-377.12	2867.9	590.16	-407.28	2841.1	472.2	-326.48	NaN	NaN	NaN	2871.3	347.88	-78.25	2813.1	344.41	-97.693	2844.6	383.99	-81.66	NaN	NaN	NaN	NaN	NaN	NaN	3041	198.41	-177.36	2890.7	330.04	-346.76	2860.3	367.74	-328.8	2906	380.68	-351.4	2884.1	254.92	-384.17	2958.9	91.393	-329.43	NaN	NaN	NaN	3103.4	217.48	-127.88	NaN	NaN	NaN	NaN	NaN	NaN	NaN	NaN	NaN	3010	69.792	-127.82	3015.4	93.081	-297.05	2964.1	70.848	-247.19	2956.3	65.225	-325.43	2838.8	52.993	-279.09	2858.6	37.951	-335.2
2	0.01	2852.1	1431.3	-254.54	2878.6	1178.2	-203.89	NaN	NaN	NaN	NaN	NaN	NaN	2794.6	1425.8	-39.353	2810.5	1364	-438.06	2889.7	1332	-361.19	2731.9	900.85	-152.47	2769.4	928.08	-347.52	2899.9	968.69	-169.95	2915.3	986.27	-240.98	2766.7	976.47	-83.15	2821.2	1009.4	-370.83	2716.1	653.31	-90.682	NaN	NaN	NaN	NaN	NaN	NaN	NaN	NaN	NaN	2692.5	449.69	-113.45	NaN	NaN	NaN	NaN	NaN	NaN	2833.1	688.14	-384.69	2893	694.56	-378.52	2857.9	591.98	-408.96	2834.1	472.98	-327.74	NaN	NaN	NaN	2837.6	350.54	-81.853	2778.4	347.85	-99.391	2812.1	387.47	-86.181	NaN	NaN	NaN	3012.4	180.8	-97.732	2998.2	190.64	-182.57	2885.9	331.62	-348.07	2854.8	368.97	-330.19	2899.9	382.42	-352.89	2880.5	256.33	-385.67	2956.9	93.97	-330.26	2958.1	111.81	-245.88	3062.3	207.73	-135.06	NaN	NaN	NaN	3025.8	156.87	-101.84	2948.9	82.839	-169.63	2961.1	65.855	-127.82	3013.8	96.182	-297.68	2962.5	73.781	-247.93	2955	67.166	-325.86	2838.9	53.395	-280.16	2858	37.93	-335.55
3	0.02	2835.5	1433.3	-255.26	2863.8	1180.1	-205.4	NaN	NaN	NaN	NaN	NaN	NaN	2778.9	1426.7	-39.919	2793.6	1366.4	-438.64	2873.3	1334.7	-362.35	2717.4	903.26	-155.23	2757.4	928.68	-346.95	2885.5	969.91	-171.11	2901.4	987.33	-241.97	2752	978.09	-84.917	2808.1	1010.7	-372.56	2695.5	658.31	-91.66	NaN	NaN	NaN	2695.8	659.65	-90.926	NaN	NaN	NaN	2661	457.19	-116.17	NaN	NaN	NaN	NaN	NaN	NaN	2821.9	689.41	-385.66	2881.7	696.28	-379.64	2847.5	593.53	-410.08	2826.5	473.64	-328.57	NaN	NaN	NaN	2803.7	352.46	-85.877	2743.9	352.29	-102.18	2779.2	389.63	-90.939	NaN	NaN	NaN	2969.4	174.53	-101.85	2974.8	162.66	-185.18	2880.7	333.05	-348.97	2848.8	370.25	-331.02	2894	384.15	-353.87	2876.5	257.57	-386.61	2954.4	96.688	-330.9	2954.8	112.07	-245.07	3019.1	196.29	-141.42	2954.4	183.14	-187.79	2981.9	149.64	-108.32	2898.1	78.832	-170.11	2909.8	63.608	-128.13	3012.1	99.723	-298.33	2960.8	76.713	-248.66	2953.4	69.884	-326.39	2837.9	52.715	-279.4	2857.8	38.117	-335.94
4	0.03	2818.8	1434.7	-255.88	2849.1	1181.4	-206.88	NaN	NaN	NaN	NaN	NaN	NaN	2763.2	1427	-40.414	2776.9	1368.3	-439.25	2857.1	1336.9	-363.47	2702.5	904.28	-157.01	2744.3	929.63	-349.03	2871.2	970.49	-172.23	2887.4	988.01	-242.9	2736.9	978.66	-86.823	2795	1011.9	-373.89	2675	663.3	-92.639	NaN	NaN	NaN	2705.9	650.49	-83.624	NaN	NaN	NaN	2631.6	464.62	-118.88	NaN	NaN	NaN	NaN	NaN	NaN	2810.3	689.73	-386.4	2870.1	697.39	-380.63	2836.9	594.28	-410.94	2818.7	474.08	-329.61	NaN	NaN	NaN	2769	353.07	-89.866	2709.1	355.83	-105.29	2747.1	392.05	-94.594	NaN	NaN	NaN	2924.2	166.62	-106.6	2909	174.59	-192.76	2875.3	334.1	-349.87	2842.1	370.89	-331.6	2887.5	385.57	-354.53	2872.2	258.67	-386.92	2953.9	98.348	-331.47	2950.8	115.97	-245.38	2975.8	184.86	-147.78	2928	152.72	-190.24	2935.4	140.88	-113.08	2845.4	75.194	-170.8	2856.9	59.822	-128.86	3010.4	103.26	-298.99	2960.6	78.987	-249.49	2952.3	72.448	-327.22	2837.2	53.252	-279.91	2857.7	38.448	-336.31
5	0.04	2802.3	1435.7	-256.39	2834.4	1182.3	-208.26	NaN	NaN	NaN	NaN	NaN	NaN	2747.4	1426.7	-40.78	2760.3	1369.7	-439.86	2841	1338.7	-364.49	2687.9	905.82	-159.28	2729.8	930.66	-352.95	2856.9	970.51	-173.37	2873.3	988.14	-243.74	2724	979.05	-88.261	2781.7	1012.4	-375.07	2654.5	668.3	-93.617	NaN	NaN	NaN	2684.6	653.9	-85.038	NaN	NaN	NaN	2602.9	472.44	-121.41	NaN	NaN	NaN	NaN	NaN	NaN	2799	689.75	-386.97	2858.6	697.8	-381.44	2826.2	594.48	-411.67	2810	473.87	-329.81	NaN	NaN	NaN	2734.2	353.2	-93.624	2674.1	359.95	-109.31	2714.3	393.06	-98.389	NaN	NaN	NaN	2878.4	158.07	-111.6	2862.8	166.02	-197.47	2868.7	335.19	-349.49	2835.5	371.36	-332.7	2880.7	386.86	-354.94	2867.6	259.55	-387.32	2952.5	100.51	-332.18	2949.7	117.56	-245.43	2929.8	171.83	-153.33	2880.3	142.76	-195.02	2887.7	131.98	-117.43	2791.7	71.536	-171.99	2803.5	57.788	-129.61	3008.7	106.81	-299.64	2959.9	81.903	-249.6	2951.8	74.594	-328.06	2836.7	53.334	-280.06	2857.2	38.694	-336.26
6	0.05	2785.7	1436.3	-256.84	2819.7	1182.7	-209.61	NaN	NaN	NaN	NaN	NaN	NaN	2731.5	1425.8	-41.069	2743.8	1370.6	-440.47	2824.9	1339.9	-365.38	2673.2	905.94	-160.37	2717.4	929.83	-352.02	2842.5	969.95	-174.57	2859.2	987.89	-244.7	2709	978.47	-89.719	2768.6	1012.6	-376.95	2633.9	673.29	-94.595	2664.9	709.16	-91.651	2663.3	657.31	-86.451	NaN	NaN	NaN	2575.1	479.57	-124.21	NaN	NaN	NaN	NaN	NaN	NaN	2787.6	688.88	-387.29	2847.3	697.61	-382	2815	593.83	-412.28	2801.3	473.53	-330.19	NaN	NaN	NaN	2698.8	352.29	-96.841	2639.7	361.61	-111.76	2681.5	393.39	-101.81	NaN	NaN	NaN	2831.3	149.43	-115.91	2815.9	157.03	-202.27	2863	335.45	-350.26	2828.4	371.56	-332.62	2873.5	387.71	-355.15	2862.8	260.09	-387.27	2950.8	102.96	-332.16	2947.8	119	-245.26	2883.7	159.42	-158.6	2831.3	132.55	-199.95	2839	123.19	-121.29	2738.9	67.612	-174.23	2749.3	54.442	-131.93	3007	110.23	-299.84	2958.1	83.468	-249.44	2950.6	76.495	-327.71	2836.1	53.389	-279.91	2856.8	39.15	-335.8
7	0.06	2769.1	1436.5	-257.33	2804.8	1182.7	-210.92	NaN	NaN	NaN	NaN	NaN	NaN	2715.5	1424.3	-41.223	2727.6	1371.1	-441.16	2809	1340.6	-366.3	2657.8	906.79	-163.19	2703.7	929.79	-355.39	2828.1	969.03	-175.82	2845	987.31	-245.73	2694.8	977.52	-91.291	2755.2	1012.3	-378.21	2613.4	678.29	-95.573	2645.1	712.13	-91.914	2642.8	660.64	-88.074	NaN	NaN	NaN	2547.9	486.34	-126.8	NaN	NaN	NaN	NaN	NaN	NaN	2776.8	688.01	-388.06	2836.2	696.93	-382.23	2804.9	593	-412.53	2791.8	472.51	-329.9	NaN	NaN	NaN	2663.3	350.87	-99.981	2605.3	364.07	-115.61	2648.8	392.94	-104.65	2640.6	262.52	-79.36	2782.7	140.83	-120.11	2767.9	148.63	-206.82	2856.5	335.83	-350.07	2822.9	369.7	-331.95	2865.8	388.15	-355.23	2857.6	260.23	-387.23	2948.6	105.39	-331.49	2946.5	121.72	-245.88	2835.6	146.65	-163.35	2781.4	122.85	-204.47	2788.8	113.87	-125.96	2683.9	65.687	-177.1	2693.7	52.322	-134.53	3005.3	113.54	-299.92	2957.7	87.506	-250.54	2949.4	78.901	-327.63	2835.6	53.524	-279.88	2856.5	39.497	-335.65
8	0.07	2752.5	1436.1	-257.75	2789.8	1182.2	-212.15	NaN	NaN	NaN	NaN	NaN	NaN	2699.4	1422.4	-41.289	2711.3	1370.9	-441.85	2793	1340.9	-367.16	2642.6	906.03	-164.68	2689.4	928.87	-358.52	2813.4	967.72	-177.1	2830.6	986.29	-246.81	2679.9	976.15	-92.488	2741.9	1011.8	-379.92	2593.6	682.2	-97.282	2626.1	714.94	-93.024	2624.2	664.42	-90.182	NaN	NaN	NaN	2521.3	492.62	-129.54	NaN	NaN	NaN	NaN	NaN	NaN	2766.1	686.29	-388.74	2825.3	695.86	-382.15	2795.3	591.81	-412.56	2782.7	471.47	-329.95	NaN	NaN	NaN	2627.7	349.09	-103	2570.8	366.53	-119.46	2615.9	392.06	-107.03	2597.7	261.04	-84.547	2732.5	131.35	-124.98	2718.6	140.99	-210.72	2849.9	335.9	-349.53	2815.9	369.32	-331.72	2858.3	388.25	-355.07	2852.4	260.4	-386.9	2947.1	107.65	-332	2944.3	124.08	-245.63	2786.3	133.95	-167.73	2730.6	113.69	-208.65	2737	104.7	-130.39	2629.5	63.875	-181.14	2638	50.789	-138.09	3003.4	116.72	-299.74	2955.4	88.405	-249.52	2948.3	80.288	-327.29	2835	53.574	-279.78	2856.2	39.691	-335.33
